# xmcd CD database file
# Copyright (C) 1993-1998 Ti Kan
#
# Track frame offsets:
#	183
#	12385
#	23030
#	35328
#	47500
#	58330
#	71970
#	84038
#	94670
#	106210
#	117643
#	129443
#	141428
#	156105
#	166130
#	178745
#
# Disc length: 2499 seconds
#
# Revision: 1
# Processed by: cddbd v1.4b41PL1 Copyright (c) Steve Scherf et al.
# Submitted via: CDValet v3.30 - Copyright (c) 1997 Greg Leichner
#
DISCID=d509c110
DTITLE=Chuck Berry - Chess Masters
DYEAR=1900
DGENRE=
TTITLE0=No Particular Place To Go
TTITLE1=Maybellene
TTITLE2=You Can't Catch Me
TTITLE3=School Days
TTITLE4=Roll Over Bethoven
TTITLE5=Sweet Little Sixteen
TTITLE6=Round And Round
TTITLE7=Sweet Little Rock And Roller
TTITLE8=Nadine
TTITLE9=Rock And Roll Music
TTITLE10=Old Baby Doll
TTITLE11=Johnny  B. Goode
TTITLE12=Reel And A Rockin'
TTITLE13=Memphis Tennessee
TTITLE14=Carol
TTITLE15=Come On
EXTD=
EXTT0=
EXTT1=
EXTT2=
EXTT3=
EXTT4=
EXTT5=
EXTT6=
EXTT7=
EXTT8=
EXTT9=
EXTT10=
EXTT11=
EXTT12=
EXTT13=
EXTT14=
EXTT15=
PLAYORDER=
